<svg width="20" height="26" viewBox="0 0 20 26" fill="none" xmlns="http://www.w3.org/2000/svg">
<path fill-rule="evenodd" clip-rule="evenodd" d="M13 6V4.5C13 3.25163 11.6149 2 10 2C8.38514 2 7 3.25163 7 4.5V6H13ZM5 6V4.5C5 2.0993 7.32324 2.38419e-07 10 0C12.6768 -2.38419e-07 15 2.0993 15 4.5V6H18.946L19.9399 23.8891C20.0011 24.9919 19.1567 25.9356 18.0539 25.9969C18.0262 25.9982 18.0123 25.9988 17.9984 25.9992C17.9916 25.9994 17.9847 25.9995 17.9762 25.9997C17.9675 25.9998 17.957 25.9999 17.9429 26H2.05713C0.952559 26 0.0571289 25.1046 0.0571289 24C0.0573856 23.9722 0.057514 23.9584 0.0578989 23.9445C0.0582838 23.9306 0.0589253 23.9168 0.0602082 23.8891L1.05404 6H5ZM2.94602 8L2.05713 24H17.9429L17.054 8H2.94602Z" fill="#8D8D8D"/>
</svg>
